<svg width="87" height="86" viewBox="0 0 87 86" fill="none" xmlns="http://www.w3.org/2000/svg">
<path d="M21.2937 0H86.6365V65.3428C86.6365 76.7391 77.3983 85.9774 66.002 85.9774H0.659119V20.6346C0.659119 9.23827 9.89739 0 21.2937 0Z" fill="url(#paint0_linear_1_22)"/>
<path d="M61.9909 19H25.3053C24.101 19 22.9085 19.2372 21.7959 19.6981C20.6833 20.159 19.6723 20.8345 18.8208 21.6861C17.9692 22.5377 17.2938 23.5487 16.8329 24.6613C16.3721 25.774 16.135 26.9665 16.1351 28.1708V58.7405C16.1351 61.1726 17.1012 63.505 18.821 65.2248C20.5407 66.9446 22.8732 67.9107 25.3053 67.9107H61.9886C64.4214 67.9107 66.7539 66.9446 68.473 65.2248C69.3253 64.3743 70.0014 63.3639 70.4626 62.2516C70.9238 61.1393 71.161 59.9469 71.1606 58.7428V28.1702C71.1606 25.7383 70.1946 23.406 68.4751 21.6863C66.7556 19.9666 64.4228 19.0003 61.9909 19ZM41.3562 22.8217C41.9645 22.8218 42.5479 23.0634 42.978 23.4936C43.2985 23.8149 43.5165 24.2239 43.6045 24.6691C43.6926 25.1143 43.6467 25.5755 43.4726 25.9946C43.2985 26.4137 43.0041 26.7717 42.6266 27.0235C42.2491 27.2753 41.8054 27.4095 41.3516 27.4092C40.8978 27.4089 40.4543 27.274 40.0772 27.0217C39.7 26.7694 39.4061 26.4109 39.2327 25.9916C39.0592 25.5723 39.0139 25.1109 39.1026 24.6659C39.1913 24.2209 39.4099 23.8121 39.7309 23.4913C40.1633 23.0627 40.7473 22.8221 41.3562 22.8217ZM32.1836 22.8217C32.5611 22.8214 32.9329 22.9143 33.2659 23.092C33.599 23.2698 33.8831 23.527 34.0929 23.8408C34.3028 24.1546 34.432 24.5153 34.4692 24.891C34.5063 25.2667 34.4501 25.6458 34.3057 25.9946C34.1612 26.3434 33.933 26.6511 33.6412 26.8906C33.3493 27.1301 33.0029 27.2939 32.6326 27.3675C32.2623 27.441 31.8796 27.4221 31.5184 27.3124C31.1571 27.2027 30.8286 27.0055 30.5618 26.7384C30.1331 26.3063 29.8916 25.7225 29.8916 25.1137C29.8916 24.5049 30.1337 23.9211 30.5635 23.4919C30.9939 23.0634 31.5763 22.8225 32.1836 22.8217ZM23.0133 22.8217C23.467 22.8221 23.9103 22.9569 24.2874 23.209C24.6644 23.4612 24.9583 23.8195 25.1318 24.2386C25.3054 24.6577 25.3508 25.1189 25.2624 25.5638C25.174 26.0087 24.9557 26.4175 24.6352 26.7384C24.3139 27.0589 23.9049 27.277 23.4598 27.3651C23.0147 27.4533 22.5535 27.4075 22.1344 27.2337C21.7153 27.0598 21.3571 26.7656 21.1051 26.3883C20.8531 26.011 20.7185 25.5674 20.7185 25.1137C20.719 24.5054 20.9608 23.9221 21.3909 23.4919C21.822 23.063 22.4053 22.8221 23.0133 22.8217ZM68.1046 58.7428C68.1049 59.5457 67.947 60.3409 67.6399 61.0827C67.3327 61.8246 66.8824 62.4987 66.3147 63.0665C65.7469 63.6342 65.0728 64.0846 64.3309 64.3917C63.589 64.6988 62.7939 64.8568 61.9909 64.8565H25.3053C24.5023 64.8568 23.7071 64.6988 22.9652 64.3916C22.2233 64.0845 21.5492 63.6341 20.9814 63.0663C20.4136 62.4984 19.9633 61.8243 19.6562 61.0823C19.3491 60.3404 19.1912 59.5452 19.1916 58.7422V31.2291H68.1046V58.7428Z" fill="white"/>
<defs>
<linearGradient id="paint0_linear_1_22" x1="0.659119" y1="85.9774" x2="86.6365" y2="0" gradientUnits="userSpaceOnUse">
<stop offset="0.05" stop-color="#7BBDEA"/>
<stop offset="0.95" stop-color="#2083C5"/>
</linearGradient>
</defs>
</svg>
